<svg xmlns="http://www.w3.org/2000/svg" xmlns:xlink="http://www.w3.org/1999/xlink" width="1200" height="720" viewBox="0 0 1200 720">
    <defs>
        <rect id="a" width="1200" height="720" rx="5"/>
        <radialGradient id="b" cx="40.916%" cy="34.814%" r="126.942%" fx="40.916%" fy="34.814%" gradientTransform="matrix(.68234 .13107 -.09021 .99137 .161 -.05)">
            <stop offset="0%" stop-color="#43A047"/>
            <stop offset="20.17%" stop-color="#53AA57"/>
            <stop offset="77.177%" stop-color="#71BD74"/>
            <stop offset="100%" stop-color="#81C784"/>
        </radialGradient>
        <linearGradient id="d" x1="13.911%" x2="93.277%" y1="4.296%" y2="31.963%">
            <stop offset="0%" stop-color="#43A047"/>
            <stop offset="20.17%" stop-color="#53AA57"/>
            <stop offset="77.177%" stop-color="#71BD74"/>
            <stop offset="100%" stop-color="#81C784"/>
        </linearGradient>
        <radialGradient id="f" cx="100%" cy="-16.153%" r="117.263%" fx="100%" fy="-16.153%" gradientTransform="matrix(-.5324 .46114 -.27668 -.88733 1.488 -.766)">
            <stop offset="0%" stop-color="#DCEDC8"/>
            <stop offset="22.696%" stop-color="#C3DEA5"/>
            <stop offset="68.133%" stop-color="#9EC872" stop-opacity="0"/>
            <stop offset="100%" stop-color="#7CB342" stop-opacity="0"/>
        </radialGradient>
        <rect id="e" width="1200" height="720" rx="5"/>
    </defs>
    <g fill="none" fill-rule="evenodd">
        <mask id="c" fill="#fff">
            <use xlink:href="#a"/>
        </mask>
        <use fill="#66BB6A" xlink:href="#a"/>
        <path fill="url(#b)" d="M1039 820.433c0-148.23-15.08-248.15-180.439-248.15-209.352 0-227.758 117.65-390.95 48.03-155.446-66.316-92.479-275.917-324.007-315.57-11.538-1.976-23.807-3.53-36.871-4.623C-76.746 284.767-166.965 218.06-163.926 100v812.629H1001.41c25.06 37.356 37.591 6.624 37.591-92.196z" mask="url(#c)" opacity=".5"/>
        <path fill="url(#d)" d="M1321 174.433c0-148.23-15.08-248.15-180.439-248.15-209.352 0-227.758 117.65-390.95 48.03-163.193-69.62-85.66-297.163-360.878-320.193C205.254-361.233 115.035-427.94 118.074-546v812.629H1283.41c25.06 37.356 37.591 6.624 37.591-92.196z" mask="url(#c)" transform="rotate(-180 719.5 -132)"/>
        <use fill="url(#f)" opacity=".445" xlink:href="#e"/>
    </g>
</svg>
