<svg width="128" height="128" xmlns="http://www.w3.org/2000/svg">

 <g>
  <title>Layer 1</title>
  <path fill="#ffffff" id="svg_1" d="m64.281,84.291c-15.54,0 -28.184,-12.643 -28.184,-28.184l0,-13.911c0,-15.542 12.644,-28.186 28.184,-28.186c15.542,0 28.186,12.644 28.186,28.186l0,13.911c0,15.541 -12.644,28.184 -28.186,28.184zm0,-66.281c-13.335,0 -24.184,10.85 -24.184,24.186l0,13.911c0,13.334 10.849,24.184 24.184,24.184c13.336,0 24.186,-10.85 24.186,-24.184l0,-13.911c0,-13.336 -10.85,-24.186 -24.186,-24.186z"/>
  <path fill="#ffffff" id="svg_2" d="m102.332,114.01l-76.51,0c-6.518,0 -11.819,-5.303 -11.819,-11.82l0,-8.734c0,-3.857 1.953,-9.027 11.26,-11.738l11.443,-3.168c1.067,-0.291 2.167,0.33 2.461,1.395s-0.33,2.166 -1.395,2.461l-11.417,3.16c-8.353,2.434 -8.353,6.541 -8.353,7.891l0,8.734c0,4.313 3.508,7.82 7.819,7.82l76.51,0c4.312,0 7.819,-3.508 7.819,-7.82l0,-8.734c0,-3.643 -2.816,-6.299 -8.372,-7.896l-10.892,-3.045c-1.064,-0.297 -1.686,-1.4 -1.388,-2.465c0.298,-1.063 1.398,-1.689 2.464,-1.387l10.906,3.049c9.326,2.682 11.281,7.867 11.281,11.744l0,8.734c0.002,6.516 -5.299,11.819 -11.817,11.819z"/>
 </g>
</svg>